<?xml version="1.0" standalone="no"?>
<!DOCTYPE svg PUBLIC "-//W3C//DTD SVG 20010904//EN"
 "http://www.w3.org/TR/2001/REC-SVG-20010904/DTD/svg10.dtd">
<svg version="1.0" xmlns="http://www.w3.org/2000/svg"
 width="400.000000pt" height="400.000000pt" viewBox="0 0 400.000000 400.000000"
 preserveAspectRatio="xMidYMid meet">

<g transform="translate(0.000000,400.000000) scale(0.100000,-0.100000)"
fill="#000000" stroke="none">
<path d="M1830 3984 c-690 -64 -1283 -464 -1601 -1079 -96 -186 -159 -379
-196 -600 -24 -139 -24 -471 0 -612 83 -489 320 -909 690 -1220 234 -196 528
-342 828 -413 895 -210 1826 231 2234 1058 140 282 205 564 205 882 -1 312
-62 583 -195 858 -99 205 -199 351 -347 507 -298 315 -683 522 -1108 596 -112
19 -405 33 -510 23z m1316 -842 c28 -18 21 -339 -11 -517 -55 -311 -189 -579
-382 -765 -48 -48 -100 -95 -114 -106 -19 -14 -28 -33 -33 -67 -31 -207 -196
-413 -481 -602 -140 -92 -238 -145 -269 -145 -24 0 -66 41 -66 65 0 6 23 41
52 76 88 109 168 309 168 418 0 37 -4 42 -38 60 -123 63 -399 342 -428 433 -6
19 -11 20 -66 14 -137 -14 -295 -76 -393 -155 -65 -53 -89 -63 -120 -51 -27
10 -41 47 -31 83 3 13 35 72 70 130 207 342 438 541 670 578 44 7 64 16 74 32
8 12 56 63 106 113 220 218 508 348 876 393 150 19 396 27 416 13z m-1666
-1493 c53 -24 134 -99 160 -149 88 -171 -40 -349 -365 -505 -131 -63 -342
-145 -374 -145 -31 0 -61 30 -61 61 0 16 21 85 46 152 177 467 391 678 594
586z"/>
</g>
</svg>
